<svg width="25" height="23" viewBox="0 0 25 23" fill="none" xmlns="http://www.w3.org/2000/svg">
<path d="M23.105 0.00208765C22.7826 0.0170862 22.4788 0.110827 22.2089 0.215817H22.2051C21.9314 0.324556 20.6303 0.872003 18.6542 1.70067C16.6782 2.53309 14.1134 3.61299 11.5674 4.68538C6.4829 6.82643 1.48464 8.93372 1.48464 8.93372L1.54463 8.91122C1.54463 8.91122 1.19967 9.02371 0.8397 9.27119C0.655968 9.39118 0.453487 9.55616 0.277254 9.81489C0.101021 10.0736 -0.0414649 10.4711 0.0110305 10.8798C0.0972723 11.5735 0.547229 11.9897 0.869697 12.2184C1.19592 12.4509 1.50713 12.5596 1.50713 12.5596H1.51463L6.20168 14.1382C6.41166 14.8132 7.63029 18.8178 7.92276 19.7402C8.09525 20.2914 8.26398 20.6363 8.47396 20.8988C8.5752 21.0338 8.69519 21.1463 8.83768 21.2363C8.89392 21.27 8.95391 21.2963 9.01391 21.3188C9.03266 21.33 9.05141 21.3338 9.0739 21.3375L9.02516 21.3263C9.04016 21.33 9.0514 21.3413 9.06265 21.345C9.10015 21.3563 9.1264 21.36 9.17514 21.3675C9.91757 21.5925 10.5138 21.1313 10.5138 21.1313L10.5475 21.105L13.3147 18.5853L17.953 22.1437L18.058 22.1887C19.0254 22.6124 20.0041 22.3762 20.5215 21.96C21.0427 21.54 21.2452 21.0038 21.2452 21.0038L21.279 20.9176L24.8636 2.55559C24.9649 2.10188 24.9911 1.67818 24.8786 1.26571C24.7661 0.853255 24.4774 0.467043 24.1287 0.260812C23.7762 0.0508327 23.4275 -0.0129109 23.105 0.00208765ZM23.0075 1.97065C23.0038 2.03064 23.015 2.02314 22.9888 2.13938V2.15063L19.4379 20.3214C19.4229 20.3476 19.3967 20.4039 19.3254 20.4601C19.2504 20.5201 19.1904 20.5576 18.8792 20.4339L13.206 16.0843L9.77883 19.2077L10.4988 14.6107C10.8812 14.2545 20.0228 5.5403 20.0228 5.5403C20.0491 5.10534 19.4454 5.41281 19.4454 5.41281L7.75778 12.6534L7.75403 12.6346L2.15207 10.7485V10.7448C2.14832 10.7448 2.14082 10.741 2.13707 10.741C2.14082 10.741 2.16707 10.7298 2.16707 10.7298L2.19707 10.7148L2.22707 10.7035C2.22707 10.7035 7.22908 8.59625 12.3136 6.45521C14.8596 5.38282 17.4243 4.30292 19.3967 3.4705C21.369 2.64183 22.8276 2.03439 22.9101 2.00064C22.9888 1.97065 22.9513 1.97065 23.0075 1.97065Z" fill="black"/>
</svg>
