<svg width="38" height="27" viewBox="0 0 38 27" fill="none" xmlns="http://www.w3.org/2000/svg">
<path d="M22.9119 13.5564L16.2292 17.3751V9.73779L22.9119 13.5564Z" fill="black" stroke="black" stroke-width="2.86399" stroke-linecap="round" stroke-linejoin="round"/>
<path d="M2 14.646V12.354C2 7.66436 2 5.31957 3.53933 3.81086C5.07868 2.30216 7.50215 2.23685 12.3491 2.10624C14.6458 2.04435 16.992 2 19 2C21.008 2 23.3542 2.04435 25.6509 2.10624C30.4978 2.23685 32.9213 2.30216 34.4607 3.81086C36 5.31957 36 7.66436 36 12.354V14.646C36 19.3356 36 21.6804 34.4607 23.189C32.9213 24.6978 30.498 24.763 25.6511 24.8937C23.3542 24.9556 21.008 25 19 25C16.992 25 14.6457 24.9556 12.3489 24.8937C7.50207 24.763 5.07865 24.6978 3.53932 23.189C2 21.6804 2 19.3356 2 14.646Z" stroke="black" stroke-width="2.86399"/>
</svg>
