<svg width="38" height="39" viewBox="0 0 38 39" fill="none" xmlns="http://www.w3.org/2000/svg">
<path d="M12.533 30.6181C12.533 30.7754 12.3593 30.9012 12.1402 30.9012C11.8909 30.9248 11.7171 30.799 11.7171 30.6181C11.7171 30.4609 11.8909 30.3351 12.11 30.3351C12.3366 30.3115 12.533 30.4373 12.533 30.6181ZM10.1835 30.2643C10.1307 30.4216 10.2817 30.6024 10.5084 30.6496C10.7048 30.7282 10.9314 30.6496 10.9768 30.4923C11.0221 30.3351 10.8786 30.1542 10.6519 30.0835C10.4555 30.0284 10.2364 30.1071 10.1835 30.2643ZM13.5227 30.1306C13.3036 30.1857 13.1525 30.3351 13.1751 30.5159C13.1978 30.6732 13.3942 30.7754 13.6209 30.7204C13.8399 30.6653 13.991 30.5159 13.9684 30.3587C13.9457 30.2093 13.7417 30.1071 13.5227 30.1306ZM18.4935 0C8.01538 0 0 8.27964 0 19.1855C0 27.9054 5.27308 35.3673 12.805 37.9935C13.772 38.1744 14.1119 37.5532 14.1119 37.0421C14.1119 36.5546 14.0892 33.8655 14.0892 32.2143C14.0892 32.2143 8.80106 33.3937 7.69054 29.8712C7.69054 29.8712 6.82932 27.5831 5.59037 26.9933C5.59037 26.9933 3.86038 25.7589 5.71124 25.7825C5.71124 25.7825 7.59233 25.9397 8.6273 27.8111C10.2817 30.8462 13.0543 29.9734 14.1346 29.4544C14.3083 28.1964 14.7994 27.3236 15.3433 26.8046C11.1203 26.3171 6.85954 25.6802 6.85954 18.1161C6.85954 15.9538 7.43368 14.8687 8.64241 13.4849C8.44599 12.9738 7.80385 10.8665 8.83883 8.14597C10.4177 7.63488 14.0515 10.269 14.0515 10.269C15.5624 9.82863 17.1866 9.60061 18.7957 9.60061C20.4049 9.60061 22.0291 9.82863 23.54 10.269C23.54 10.269 27.1737 7.62702 28.7526 8.14597C29.7876 10.8744 29.1455 12.9738 28.9491 13.4849C30.1578 14.8766 30.8981 15.9617 30.8981 18.1161C30.8981 25.7038 26.4485 26.3093 22.2255 26.8046C22.9205 27.4258 23.5098 28.6052 23.5098 30.453C23.5098 33.1028 23.4871 36.3817 23.4871 37.0264C23.4871 37.5375 23.8346 38.1587 24.794 37.9778C32.3486 35.3673 37.4706 27.9054 37.4706 19.1855C37.4706 8.27964 28.9717 0 18.4935 0ZM7.34303 27.1192C7.24482 27.1978 7.26748 27.3786 7.39591 27.528C7.51678 27.6538 7.69054 27.7089 7.78875 27.6067C7.88695 27.528 7.86429 27.3472 7.73586 27.1978C7.61499 27.072 7.44124 27.0169 7.34303 27.1192ZM6.52713 26.4823C6.47425 26.5845 6.5498 26.7103 6.70089 26.7889C6.82176 26.8675 6.97285 26.844 7.02574 26.7339C7.07862 26.6317 7.00307 26.5058 6.85198 26.4272C6.70089 26.38 6.58002 26.4036 6.52713 26.4823ZM8.97481 29.2815C8.85394 29.3837 8.89926 29.6196 9.07302 29.769C9.24677 29.9498 9.46586 29.9734 9.56407 29.8476C9.66227 29.7454 9.61695 29.5095 9.46586 29.3601C9.29966 29.1792 9.07302 29.1556 8.97481 29.2815ZM8.11359 28.1256C7.99272 28.2042 7.99272 28.4087 8.11359 28.5895C8.23446 28.7704 8.43844 28.849 8.53665 28.7704C8.65752 28.6681 8.65752 28.4637 8.53665 28.2829C8.43088 28.102 8.23446 28.0234 8.11359 28.1256Z" fill="white"/>
</svg>
